<svg aria-hidden="true" style="position: absolute; width: 0; height: 0; overflow: hidden;" version="1.1" xmlns="http://www.w3.org/2000/svg" xmlns:xlink="http://www.w3.org/1999/xlink">
<defs>
<symbol id="icon-logo" viewBox="0 0 32 32">
<path d="M29.082 0.314h-4.009c-1.237 0-2.24 0.983-2.24 2.195v3.929c0 1.212 1.003 2.195 2.24 2.195h4.009c1.237 0 2.24-0.983 2.24-2.195v-3.929c0-1.212-1.003-2.195-2.24-2.195z"></path>
<path d="M6.73 23.040h-4.318c-1.332 0-2.412 0.983-2.412 2.195v3.929c0 1.213 1.080 2.195 2.412 2.195h4.318c1.332 0 2.412-0.983 2.412-2.195v-3.929c0-1.212-1.080-2.195-2.412-2.195z"></path>
<path d="M6.25 11.582h-4.009c-1.237 0-2.24 0.983-2.24 2.195v3.929c0 1.212 1.003 2.195 2.24 2.195h4.009c1.237 0 2.24-0.983 2.24-2.195v-3.929c0-1.212-1.003-2.195-2.24-2.195z"></path>
<path d="M17.766 22.978h-4.009c-1.237 0-2.24 0.983-2.24 2.195l-0 3.929c0 1.212 1.003 2.195 2.241 2.195h4.009c1.237 0 2.24-0.983 2.24-2.195v-3.929c0-1.212-1.003-2.195-2.24-2.195z"></path>
<path d="M6.25 0.086h-4.009c-1.237 0-2.24 0.983-2.24 2.195v3.929c0 1.212 1.003 2.195 2.24 2.195h4.009c1.237 0 2.24-0.983 2.24-2.195v-3.929c0-1.212-1.003-2.195-2.24-2.195z"></path>
<path d="M18.076 11.697h-4.009c-1.237 0-2.24 0.983-2.24 2.195v3.929c0 1.212 1.003 2.195 2.24 2.195h4.009c1.237 0 2.24-0.983 2.24-2.195v-3.929c0-1.212-1.003-2.195-2.24-2.195z"></path>
<path d="M29.333 22.978h-4.010c-1.237 0-2.24 0.983-2.24 2.195v3.929c0 1.212 1.003 2.195 2.24 2.195h4.009c1.237 0 2.24-0.983 2.24-2.195v-3.929c0-1.212-1.003-2.195-2.24-2.195z"></path>
<path d="M17.591 0.224h-4.009c-1.237 0-2.24 0.983-2.24 2.195v3.929c0 1.212 1.003 2.195 2.24 2.195h4.009c1.237 0 2.24-0.984 2.24-2.196v-3.929c0-1.212-1.003-2.195-2.24-2.195z"></path>
<path d="M29.044 11.926h-4.010c-1.237 0-2.24 0.983-2.24 2.195v3.929c0 1.212 1.003 2.195 2.24 2.195h4.009c1.237 0 2.24-0.983 2.24-2.195v-3.929c0-1.212-1.003-2.195-2.24-2.195z"></path>
</symbol>

<symbol id="icon-ac" width="30" height="25" viewBox="0 0 30 25" fill="none" xmlns="http://www.w3.org/2000/svg">
  <mask id="path-1-inside-1_3_2793" fill="white">
    <path d="M14.5537 0.3C13.2027 0.300309 11.8935 0.780497 10.8487 1.65893C9.80383 2.53736 9.08787 3.75981 8.8225 5.11846L8.7181 5.65754C8.69035 5.77812 8.68654 5.90319 8.70692 6.02531C8.7273 6.14743 8.77143 6.26409 8.8367 6.36835C8.90197 6.4726 8.98703 6.56231 9.08681 6.63213C9.1866 6.70196 9.29907 6.75046 9.41752 6.77476C9.53597 6.79906 9.65798 6.79865 9.77627 6.77356C9.89457 6.74847 10.0067 6.69922 10.1061 6.62873C10.2054 6.55824 10.2899 6.46796 10.3545 6.36328C10.4191 6.25859 10.4625 6.14164 10.4821 6.01938L10.5883 5.48215C10.7878 4.47479 11.3447 3.57922 12.1512 2.96889C12.9576 2.35856 13.9562 2.07691 14.9536 2.17849C15.9509 2.28006 16.876 2.75764 17.5497 3.51872C18.2233 4.2798 18.5976 5.27022 18.6001 6.29815C18.6001 7.39999 18.1735 8.45673 17.414 9.23602C16.6545 10.0153 15.6244 10.4534 14.5501 10.4538H1.5001C1.2614 10.4538 1.03248 10.5511 0.863702 10.7242C0.694919 10.8973 0.600098 11.1321 0.600098 11.3769C0.600098 11.6217 0.694919 11.8565 0.863702 12.0296C1.03248 12.2027 1.2614 12.3 1.5001 12.3H14.5501C16.0765 12.2616 17.5278 11.6129 18.5944 10.4923C19.6609 9.37162 20.2581 7.86781 20.2586 6.3018C20.259 4.73579 19.6627 3.23161 18.5969 2.11028C17.531 0.988962 16.0801 0.339318 14.5537 0.3ZM24.9001 8.60769C23.7066 8.60769 22.562 9.09395 21.7181 9.95951C20.8742 10.8251 20.4001 11.999 20.4001 13.2231C20.4001 13.4679 20.4949 13.7027 20.6637 13.8758C20.8325 14.0489 21.0614 14.1462 21.3001 14.1462C21.5388 14.1462 21.7677 14.0489 21.9365 13.8758C22.1053 13.7027 22.2001 13.4679 22.2001 13.2231C22.2001 12.6754 22.3584 12.14 22.6551 11.6846C22.9518 11.2292 23.3735 10.8742 23.8669 10.6646C24.3602 10.455 24.9031 10.4002 25.4268 10.5071C25.9506 10.6139 26.4317 10.8777 26.8093 11.2649C27.1869 11.6522 27.444 12.1456 27.5482 12.6828C27.6524 13.22 27.5989 13.7768 27.3946 14.2828C27.1902 14.7888 26.8441 15.2213 26.4001 15.5256C25.9561 15.8299 25.4341 15.9923 24.9001 15.9923H1.5001C1.2614 15.9923 1.03248 16.0896 0.863702 16.2627C0.694919 16.4358 0.600098 16.6706 0.600098 16.9154C0.600098 17.1602 0.694919 17.395 0.863702 17.5681C1.03248 17.7412 1.2614 17.8385 1.5001 17.8385H19.0501C19.6468 17.8397 20.2187 18.084 20.6398 18.5176C21.0609 18.9513 21.2968 19.5387 21.2956 20.1508C21.2944 20.7628 21.0562 21.3493 20.6334 21.7812C20.2106 22.2131 19.6378 22.4551 19.0411 22.4538C18.5036 22.4542 17.9832 22.2594 17.5724 21.9039C17.1615 21.5484 16.8867 21.0552 16.7965 20.5117L16.7875 20.4563C16.7713 20.3339 16.7313 20.216 16.6699 20.1097C16.6085 20.0034 16.5269 19.9108 16.43 19.8375C16.333 19.7641 16.2227 19.7115 16.1056 19.6826C15.9884 19.6538 15.8668 19.6494 15.748 19.6697C15.6291 19.69 15.5155 19.7345 15.4137 19.8007C15.312 19.8668 15.2242 19.9533 15.1557 20.0549C15.0871 20.1564 15.0391 20.2711 15.0145 20.3921C14.99 20.5131 14.9894 20.6379 15.0127 20.7591L15.0217 20.8145C15.1817 21.7891 15.6733 22.674 16.4091 23.3121C17.145 23.9502 18.0775 24.3002 19.0411 24.3C20.1162 24.3005 21.1475 23.8633 21.9086 23.0845C22.6696 22.3056 23.0982 21.2488 23.1001 20.1462C23.1001 19.2914 22.8481 18.4975 22.4179 17.8385H24.9001C26.0936 17.8385 27.2382 17.3522 28.0821 16.4866C28.926 15.6211 29.4001 14.4472 29.4001 13.2231C29.4001 11.999 28.926 10.8251 28.0821 9.95951C27.2382 9.09395 26.0936 8.60769 24.9001 8.60769Z" />
  </mask>
  <path d="M14.5537 0.3C13.2027 0.300309 11.8935 0.780497 10.8487 1.65893C9.80383 2.53736 9.08787 3.75981 8.8225 5.11846L8.7181 5.65754C8.69035 5.77812 8.68654 5.90319 8.70692 6.02531C8.7273 6.14743 8.77143 6.26409 8.8367 6.36835C8.90197 6.4726 8.98703 6.56231 9.08681 6.63213C9.1866 6.70196 9.29907 6.75046 9.41752 6.77476C9.53597 6.79906 9.65798 6.79865 9.77627 6.77356C9.89457 6.74847 10.0067 6.69922 10.1061 6.62873C10.2054 6.55824 10.2899 6.46796 10.3545 6.36328C10.4191 6.25859 10.4625 6.14164 10.4821 6.01938L10.5883 5.48215C10.7878 4.47479 11.3447 3.57922 12.1512 2.96889C12.9576 2.35856 13.9562 2.07691 14.9536 2.17849C15.9509 2.28006 16.876 2.75764 17.5497 3.51872C18.2233 4.2798 18.5976 5.27022 18.6001 6.29815C18.6001 7.39999 18.1735 8.45673 17.414 9.23602C16.6545 10.0153 15.6244 10.4534 14.5501 10.4538H1.5001C1.2614 10.4538 1.03248 10.5511 0.863702 10.7242C0.694919 10.8973 0.600098 11.1321 0.600098 11.3769C0.600098 11.6217 0.694919 11.8565 0.863702 12.0296C1.03248 12.2027 1.2614 12.3 1.5001 12.3H14.5501C16.0765 12.2616 17.5278 11.6129 18.5944 10.4923C19.6609 9.37162 20.2581 7.86781 20.2586 6.3018C20.259 4.73579 19.6627 3.23161 18.5969 2.11028C17.531 0.988962 16.0801 0.339318 14.5537 0.3ZM24.9001 8.60769C23.7066 8.60769 22.562 9.09395 21.7181 9.95951C20.8742 10.8251 20.4001 11.999 20.4001 13.2231C20.4001 13.4679 20.4949 13.7027 20.6637 13.8758C20.8325 14.0489 21.0614 14.1462 21.3001 14.1462C21.5388 14.1462 21.7677 14.0489 21.9365 13.8758C22.1053 13.7027 22.2001 13.4679 22.2001 13.2231C22.2001 12.6754 22.3584 12.14 22.6551 11.6846C22.9518 11.2292 23.3735 10.8742 23.8669 10.6646C24.3602 10.455 24.9031 10.4002 25.4268 10.5071C25.9506 10.6139 26.4317 10.8777 26.8093 11.2649C27.1869 11.6522 27.444 12.1456 27.5482 12.6828C27.6524 13.22 27.5989 13.7768 27.3946 14.2828C27.1902 14.7888 26.8441 15.2213 26.4001 15.5256C25.9561 15.8299 25.4341 15.9923 24.9001 15.9923H1.5001C1.2614 15.9923 1.03248 16.0896 0.863702 16.2627C0.694919 16.4358 0.600098 16.6706 0.600098 16.9154C0.600098 17.1602 0.694919 17.395 0.863702 17.5681C1.03248 17.7412 1.2614 17.8385 1.5001 17.8385H19.0501C19.6468 17.8397 20.2187 18.084 20.6398 18.5176C21.0609 18.9513 21.2968 19.5387 21.2956 20.1508C21.2944 20.7628 21.0562 21.3493 20.6334 21.7812C20.2106 22.2131 19.6378 22.4551 19.0411 22.4538C18.5036 22.4542 17.9832 22.2594 17.5724 21.9039C17.1615 21.5484 16.8867 21.0552 16.7965 20.5117L16.7875 20.4563C16.7713 20.3339 16.7313 20.216 16.6699 20.1097C16.6085 20.0034 16.5269 19.9108 16.43 19.8375C16.333 19.7641 16.2227 19.7115 16.1056 19.6826C15.9884 19.6538 15.8668 19.6494 15.748 19.6697C15.6291 19.69 15.5155 19.7345 15.4137 19.8007C15.312 19.8668 15.2242 19.9533 15.1557 20.0549C15.0871 20.1564 15.0391 20.2711 15.0145 20.3921C14.99 20.5131 14.9894 20.6379 15.0127 20.7591L15.0217 20.8145C15.1817 21.7891 15.6733 22.674 16.4091 23.3121C17.145 23.9502 18.0775 24.3002 19.0411 24.3C20.1162 24.3005 21.1475 23.8633 21.9086 23.0845C22.6696 22.3056 23.0982 21.2488 23.1001 20.1462C23.1001 19.2914 22.8481 18.4975 22.4179 17.8385H24.9001C26.0936 17.8385 27.2382 17.3522 28.0821 16.4866C28.926 15.6211 29.4001 14.4472 29.4001 13.2231C29.4001 11.999 28.926 10.8251 28.0821 9.95951C27.2382 9.09395 26.0936 8.60769 24.9001 8.60769Z" fill="#101828" />
  <path d="M14.5537 0.3L14.6824 -4.69834L14.6175 -4.70001L14.5526 -4.7L14.5537 0.3ZM8.8225 5.11846L3.91522 4.15996L3.9137 4.16781L8.8225 5.11846ZM8.7181 5.65754L13.5907 6.77899L13.6103 6.69391L13.6269 6.60819L8.7181 5.65754ZM10.4821 6.01938L5.57702 5.04974L5.55947 5.13851L5.54515 5.22786L10.4821 6.01938ZM10.5883 5.48215L5.68357 4.51074L5.68322 4.51251L10.5883 5.48215ZM18.6001 6.29815L23.6001 6.29815L23.6001 6.28621L18.6001 6.29815ZM14.5501 10.4538L14.5501 15.4538L14.5524 15.4538L14.5501 10.4538ZM0.600098 11.3769L-4.3999 11.3769L0.600098 11.3769ZM14.5501 12.3V17.3H14.6129L14.6757 17.2984L14.5501 12.3ZM22.2001 13.2231L27.2001 13.2231L22.2001 13.2231ZM0.600098 16.9154L-4.3999 16.9154L0.600098 16.9154ZM19.0501 17.8385L19.0604 12.8385H19.0501V17.8385ZM19.0411 22.4538L19.0514 17.4538L19.0374 17.4538L19.0411 22.4538ZM16.7965 20.5117L11.8612 21.3138L11.8626 21.3218L11.8639 21.3299L16.7965 20.5117ZM16.7875 20.4563L11.8306 21.1112L11.8403 21.1849L11.8522 21.2584L16.7875 20.4563ZM15.0127 20.7591L19.948 19.9572L19.9363 19.8853L19.9225 19.8138L15.0127 20.7591ZM15.0217 20.8145L10.0864 21.6164L10.0878 21.6246L15.0217 20.8145ZM19.0411 24.3L19.0434 19.3L19.0401 19.3L19.0411 24.3ZM23.1001 20.1462L28.1001 20.1548V20.1462H23.1001ZM22.4179 17.8385V12.8385H13.1834L18.2309 20.5714L22.4179 17.8385ZM14.5526 -4.7C12.0115 -4.69942 9.56635 -3.7953 7.63104 -2.1682L14.0663 5.48605C14.2206 5.35629 14.3939 5.30004 14.5548 5.3L14.5526 -4.7ZM7.63104 -2.1682C5.69848 -0.543413 4.39622 1.69742 3.91523 4.15996L13.7298 6.07696C13.7795 5.82221 13.9092 5.61813 14.0663 5.48605L7.63104 -2.1682ZM3.9137 4.16781L3.8093 4.70688L13.6269 6.60819L13.7313 6.06912L3.9137 4.16781ZM3.84549 4.53609C3.67081 5.29503 3.64704 6.08072 3.7751 6.84821L13.6387 5.20241C13.726 5.72567 13.7099 6.26121 13.5907 6.77899L3.84549 4.53609ZM3.7751 6.84821C3.90318 7.61579 4.18148 8.35508 4.59869 9.0215L13.0747 3.71519C13.3614 4.1731 13.5514 4.67907 13.6387 5.20241L3.7751 6.84821ZM4.59869 9.0215C5.01608 9.68822 5.56559 10.2707 6.22027 10.7288L11.9534 2.53544C12.4085 2.85388 12.7879 3.25698 13.0747 3.71519L4.59869 9.0215ZM6.22027 10.7288C6.8753 11.1872 7.62061 11.5103 8.4128 11.6728L10.4222 1.87674C10.9775 1.99065 11.4979 2.21674 11.9534 2.53544L6.22027 10.7288ZM8.4128 11.6728C9.20518 11.8353 10.0224 11.8326 10.8136 11.6648L8.73893 1.88235C9.29358 1.76472 9.86676 1.7628 10.4222 1.87674L8.4128 11.6728ZM10.8136 11.6648C11.6046 11.497 12.3476 11.169 12.9995 10.7065L7.21267 2.55095C7.66581 2.22943 8.18449 1.99994 8.73893 1.88235L10.8136 11.6648ZM12.9995 10.7065C13.6509 10.2442 14.1965 9.65832 14.6095 8.98908L6.09949 3.73747C6.38327 3.27761 6.75988 2.87223 7.21267 2.55095L12.9995 10.7065ZM14.6095 8.98908C15.0223 8.3201 15.2959 7.57917 15.419 6.81091L5.54515 5.22786C5.62912 4.7041 5.81586 4.19708 6.09949 3.73747L14.6095 8.98908ZM15.3872 6.98903L15.4934 6.45179L5.68322 4.51251L5.57702 5.04974L15.3872 6.98903ZM15.493 6.45357C15.4584 6.62837 15.3561 6.81389 15.1685 6.95582L9.13384 -1.01804C7.33339 0.344548 6.11722 2.32122 5.68357 4.51074L15.493 6.45357ZM15.1685 6.95582C14.9772 7.1006 14.7192 7.18048 14.4469 7.15275L15.4602 -2.79578C13.1933 -3.02666 10.938 -2.38348 9.13384 -1.01804L15.1685 6.95582ZM14.4469 7.15275C14.1758 7.12514 13.9515 6.99749 13.8057 6.83272L21.2936 0.204726C19.8004 -1.48221 17.726 -2.56501 15.4602 -2.79578L14.4469 7.15275ZM13.8057 6.83272C13.6628 6.6713 13.6005 6.48381 13.6001 6.3101L23.6001 6.28621C23.5948 4.05664 22.7839 1.88831 21.2936 0.204726L13.8057 6.83272ZM13.6001 6.29815C13.6001 6.11455 13.67 5.91379 13.8332 5.74631L20.9948 12.7257C22.6769 10.9997 23.6001 8.68543 23.6001 6.29815L13.6001 6.29815ZM13.8332 5.74631C14.0006 5.57455 14.255 5.45398 14.5478 5.45385L14.5524 15.4538C16.9938 15.4527 19.3084 14.4561 20.9948 12.7257L13.8332 5.74631ZM14.5501 5.45385H1.5001V15.4538H14.5501V5.45385ZM1.5001 5.45385C-0.106114 5.45385 -1.62015 6.10945 -2.7163 7.23371L4.4437 14.2147C3.68512 14.9927 2.62892 15.4538 1.5001 15.4538V5.45385ZM-2.7163 7.23371C-3.80825 8.35366 -4.3999 9.8463 -4.3999 11.3769L5.6001 11.3769C5.6001 12.4179 5.19809 13.441 4.4437 14.2147L-2.7163 7.23371ZM-4.3999 11.3769C-4.3999 12.9075 -3.80825 14.4002 -2.7163 15.5201L4.4437 8.53914C5.19809 9.31287 5.6001 10.3359 5.6001 11.3769L-4.3999 11.3769ZM-2.7163 15.5201C-1.62014 16.6444 -0.106101 17.3 1.5001 17.3V7.3C2.62891 7.3 3.68511 7.7611 4.4437 8.53914L-2.7163 15.5201ZM1.5001 17.3H14.5501V7.3H1.5001V17.3ZM14.6757 17.2984C17.5466 17.2263 20.2496 16.0058 22.2163 13.9392L14.9724 7.04529C14.8061 7.22005 14.6064 7.29701 14.4245 7.30158L14.6757 17.2984ZM22.2163 13.9392C24.1791 11.8768 25.2577 9.13451 25.2586 6.3033L15.2586 6.3003C15.2585 6.60111 15.1426 6.86647 14.9724 7.04529L22.2163 13.9392ZM25.2586 6.3033C25.2594 3.47209 24.1825 0.729202 22.2209 -1.33447L14.9728 5.55504C15.143 5.73401 15.2587 5.99949 15.2586 6.3003L25.2586 6.3033ZM22.2209 -1.33447C20.2555 -3.4022 17.5533 -4.62439 14.6824 -4.69834L14.4249 5.29834C14.6068 5.30303 14.8066 5.38012 14.9728 5.55504L22.2209 -1.33447ZM24.9001 3.60769C22.3391 3.60769 19.9094 4.65231 18.1381 6.46901L25.2981 13.45C25.2147 13.5356 25.0741 13.6077 24.9001 13.6077V3.60769ZM18.1381 6.46901C16.371 8.2814 15.4001 10.7132 15.4001 13.2231H25.4001C25.4001 13.2848 25.3774 13.3687 25.2981 13.45L18.1381 6.46901ZM15.4001 13.2231C15.4001 14.7537 15.9917 16.2463 17.0837 17.3663L24.2437 10.3853C24.9981 11.159 25.4001 12.1821 25.4001 13.2231H15.4001ZM17.0837 17.3663C18.1798 18.4905 19.6939 19.1462 21.3001 19.1462V9.14615C22.4289 9.14615 23.4851 9.60726 24.2437 10.3853L17.0837 17.3663ZM21.3001 19.1462C22.9063 19.1462 24.4203 18.4906 25.5165 17.3663L18.3565 10.3853C19.1151 9.60725 20.1713 9.14615 21.3001 9.14615V19.1462ZM25.5165 17.3663C26.6085 16.2463 27.2001 14.7537 27.2001 13.2231H17.2001C17.2001 12.1821 17.6021 11.1591 18.3565 10.3853L25.5165 17.3663ZM27.2001 13.2231C27.2001 13.6365 27.0811 14.0506 26.8445 14.4139L18.4657 8.95529C17.6358 10.2293 17.2001 11.7142 17.2001 13.2231L27.2001 13.2231ZM26.8445 14.4139C26.607 14.7784 26.2563 15.082 25.8219 15.2666L21.9118 6.06271C20.4907 6.66645 19.2966 7.67996 18.4657 8.95529L26.8445 14.4139ZM25.8219 15.2666C25.386 15.4517 24.8988 15.5023 24.4274 15.4061L26.4263 5.60797C24.9074 5.29809 23.3344 5.45835 21.9118 6.06271L25.8219 15.2666ZM24.4274 15.4061C23.9568 15.3101 23.5424 15.0766 23.2293 14.7554L30.3893 7.77443C29.321 6.67875 27.9444 5.91767 26.4263 5.60797L24.4274 15.4061ZM23.2293 14.7554C22.9175 14.4357 22.7189 14.0434 22.6397 13.6348L32.4568 11.7309C32.1691 10.2479 31.4563 8.86876 30.3893 7.77443L23.2293 14.7554ZM22.6397 13.6348C22.5605 13.2267 22.6001 12.8024 22.7584 12.4105L32.0308 16.1552C32.5978 14.7512 32.7443 13.2133 32.4568 11.7309L22.6397 13.6348ZM22.7584 12.4105C22.9171 12.0175 23.1941 11.6613 23.5736 11.4012L29.2266 19.65C30.4942 18.7813 31.4633 17.5602 32.0308 16.1552L22.7584 12.4105ZM23.5736 11.4012C23.9548 11.14 24.4166 10.9923 24.9001 10.9923V20.9923C26.4516 20.9923 27.9575 20.5198 29.2266 19.65L23.5736 11.4012ZM24.9001 10.9923H1.5001V20.9923H24.9001V10.9923ZM1.5001 10.9923C-0.106114 10.9923 -1.62015 11.6479 -2.7163 12.7722L4.4437 19.7532C3.68512 20.5312 2.62892 20.9923 1.5001 20.9923V10.9923ZM-2.7163 12.7722C-3.80825 13.8921 -4.3999 15.3848 -4.3999 16.9154L5.6001 16.9154C5.6001 17.9564 5.19809 18.9794 4.4437 19.7532L-2.7163 12.7722ZM-4.3999 16.9154C-4.3999 18.446 -3.80825 19.9386 -2.7163 21.0586L4.4437 14.0776C5.19809 14.8513 5.6001 15.8744 5.6001 16.9154L-4.3999 16.9154ZM-2.7163 21.0586C-1.62015 22.1829 -0.106114 22.8385 1.5001 22.8385V12.8385C2.62892 12.8385 3.68512 13.2996 4.4437 14.0776L-2.7163 21.0586ZM1.5001 22.8385H19.0501V12.8385H1.5001V22.8385ZM19.0398 22.8385C18.2691 22.8369 17.557 22.5202 17.0528 22.001L24.2267 15.0343C22.8803 13.6478 21.0246 12.8425 19.0604 12.8385L19.0398 22.8385ZM17.0528 22.001C16.5528 21.486 16.2943 20.8148 16.2956 20.141L26.2956 20.1605C26.2993 18.2627 25.569 16.4165 24.2267 15.0343L17.0528 22.001ZM16.2956 20.141C16.2969 19.4672 16.558 18.7968 17.0604 18.2836L24.2064 25.2789C25.5544 23.9018 26.2919 22.0584 26.2956 20.1605L16.2956 20.141ZM17.0604 18.2836C17.567 17.7661 18.2806 17.4523 19.0514 17.4539L19.0308 27.4538C20.9951 27.4579 22.8542 26.6602 24.2064 25.2789L17.0604 18.2836ZM19.0374 17.4538C19.7169 17.4533 20.356 17.7006 20.844 18.1228L14.3008 25.685C15.6105 26.8182 17.2903 27.4551 19.0448 27.4538L19.0374 17.4538ZM20.844 18.1228C21.329 18.5425 21.6312 19.1035 21.7291 19.6935L11.8639 21.3299C12.1421 23.0069 12.994 24.5543 14.3008 25.685L20.844 18.1228ZM21.7317 19.7096L21.7227 19.6542L11.8522 21.2584L11.8612 21.3138L21.7317 19.7096ZM21.7444 19.8014C21.6428 19.0324 21.3911 18.2866 20.9994 17.6085L12.3405 22.6109C12.0716 22.1454 11.8998 21.6354 11.8306 21.1112L21.7444 19.8014ZM20.9994 17.6085C20.6074 16.9301 20.0816 16.3305 19.4471 15.8504L13.4129 23.8246C12.9722 23.4911 12.6096 23.0767 12.3405 22.6109L20.9994 17.6085ZM19.4471 15.8504C18.8122 15.3699 18.0826 15.0199 17.3 14.8274L14.9111 24.5379C14.3628 24.403 13.8538 24.1583 13.4129 23.8246L19.4471 15.8504ZM17.3 14.8274C16.5172 14.6348 15.7028 14.6052 14.9072 14.7409L16.5888 24.5985C16.0309 24.6937 15.4597 24.6728 14.9111 24.5379L17.3 14.8274ZM14.9072 14.7409C14.1118 14.8766 13.3573 15.1737 12.688 15.609L18.1395 23.9924C17.6736 24.2953 17.1465 24.5033 16.5888 24.5985L14.9072 14.7409ZM12.688 15.609C12.0191 16.044 11.4508 16.6066 11.0113 17.2576L19.3 22.8521C18.9977 23.3 18.6049 23.6897 18.1395 23.9924L12.688 15.609ZM11.0113 17.2576C10.5721 17.9084 10.269 18.6364 10.1145 19.3974L19.9146 21.3868C19.8092 21.9059 19.6021 22.4045 19.3 22.8521L11.0113 17.2576ZM10.1145 19.3974C9.96003 20.1583 9.95611 20.9421 10.1029 21.7044L19.9225 19.8138C20.0226 20.3336 20.0199 20.8679 19.9146 21.3868L10.1145 19.3974ZM10.0774 21.561L10.0864 21.6164L19.957 20.0125L19.948 19.9572L10.0774 21.561ZM10.0878 21.6246C10.4341 23.734 11.5018 25.6747 13.1334 27.0895L19.6849 19.5346C19.8448 19.6732 19.9293 19.8441 19.9556 20.0043L10.0878 21.6246ZM13.1334 27.0895C14.7679 28.507 16.8605 29.3004 19.0421 29.3L19.0401 19.3C19.2945 19.2999 19.522 19.3933 19.6849 19.5346L13.1334 27.0895ZM19.0388 29.3C21.4802 29.3011 23.796 28.3071 25.4847 26.5789L18.3325 19.59C18.4991 19.4195 18.7522 19.2999 19.0434 19.3L19.0388 29.3ZM25.4847 26.5789C27.1693 24.855 28.096 22.5422 28.1001 20.1548L18.1001 20.1375C18.1004 19.9555 18.17 19.7562 18.3325 19.59L25.4847 26.5789ZM28.1001 20.1462C28.1001 18.2972 27.5525 16.5573 26.6049 15.1055L18.2309 20.5714C18.1437 20.4378 18.1001 20.2856 18.1001 20.1462H28.1001ZM22.4179 22.8385H24.9001V12.8385H22.4179V22.8385ZM24.9001 22.8385C27.4611 22.8385 29.8908 21.7938 31.6621 19.9771L24.5021 12.9961C24.5855 12.9106 24.7261 12.8385 24.9001 12.8385V22.8385ZM31.6621 19.9771C33.4292 18.1648 34.4001 15.733 34.4001 13.2231H24.4001C24.4001 13.1613 24.4228 13.0774 24.5021 12.9961L31.6621 19.9771ZM34.4001 13.2231C34.4001 10.7132 33.4292 8.2814 31.6621 6.46901L24.5021 13.45C24.4228 13.3687 24.4001 13.2848 24.4001 13.2231H34.4001ZM31.6621 6.46901C29.8908 4.65231 27.4611 3.60769 24.9001 3.60769V13.6077C24.7261 13.6077 24.5855 13.5356 24.5021 13.45L31.6621 6.46901Z" fill="#101828" mask="url(#path-1-inside-1_3_2793)" />
</symbol>

</defs>
</svg>
